<svg xmlns="http://www.w3.org/2000/svg" viewBox="0 0 639.32 750"><defs><style>.cls-1{fill:#fff;}</style></defs><g id="objects"><path class="cls-1" d="M600.6,239.22c-60.92-4.9-78-12.31-78-12.31,28.1-8.78,36.81-2.26,89.64-7.6,94.4-9.53,108-69.52,108-69.52-18.37,23.87-82.61,34.09-130.91,30.61s-107.13,7.87-107.13,7.87c18-14.37,55.57-15.93,76.4-18.76,44.28-6,87.79-25.37,119.4-70C703.74,63.23,689.47,25,689.47,25,686.29,40.64,652.75,118.86,544,132.79c-76.24,9.78-138.19,41.43-138.19,41.43s14.93-14.93,37.76-36,87.24-45.51,87.24-45.51C460,97.25,381.26,144.36,350.54,173.37s-81.68,40.31-81.68,40.31c13.06-2,21.41,0,21.41,0,3.84,41.21-26.67,49.94-26.67,49.94-108.89,42-120.3,71.29-120.3,71.29-5.21-23.7,14.72-35.49,14.72-35.49-36.73,7.46-53.38,61.71-53.38,61.71C86.17,342.56,81,348.08,81,348.08c17.56,25.47,31.86,92.82,31.86,92.82,4.64-29.24,36.11-32.11,36.11-32.11v21c14.41-8.78,27.41-32.35,27.41-32.35l2.09,24.45c18.37-9,22.29-31,22.29-31l0,23.27c15.74-5.73,24.59-31.61,24.59-31.61l-2.06,21.31c19.52-11.55,22-27,22-27a56.23,56.23,0,0,0,1.14,21.52c24.62-36.15,52.38-40.55,52.38-40.55,57.95,15.81,37.13,62.91,37.13,62.91-48.93-11.73-83.67,7.34-83.67,7.34l-1.76-16.68c-16.15,9.63-26.88,25.76-26.88,25.76l-4.86-17.78C210.1,424,195.1,443.8,195.1,443.8L190.71,428c-14.05,8.78-25.46,31.61-25.46,31.61l-2.64-18.44c-36.89,43.69-16.37,69.52-16.37,69.52-5-19.16,7.54-32.85,7.54-32.85S160,491.21,181.05,500s23.08,35.74,23.08,35.74c11.66-22.22-7.54-44.2-7.54-44.2,13.77,3.83,96.58-23.45,166.23-31.06s72.92,24.67,72.92,24.67c90.46-54.52,41-151,41-151s45,21,32.7,87.74-73.76,82.54-73.76,82.54c-13.17,20.19-12.29,19.31-122.93,85.17S228.54,775,228.54,775c58.9-75.36,104-76.2,230.87-116.07S602.54,529,602.54,529c7.91,31.61-18.88,102.32-18.88,102.32,74.2-45.21,65.42-200.66,65.42-200.66,25.47,45.66,11.49,126.6,11.49,126.6C752,359.82,601.66,281.35,601.66,281.35c48.3-.88,102.81,56.34,102.81,56.34C683.47,265,636.84,242.13,600.6,239.22Zm-258.31,45L328,282.5l11-6.1s0-17.54,24.25-14.52,21.47,14.66,33.49,10.19C396.71,272.07,380,288.3,342.29,284.25Z" transform="translate(-80.95 -25)"/></g></svg>